<?xml version="1.0" encoding="UTF-8"?>
<svg id="Layer_2" data-name="Layer 2" xmlns="http://www.w3.org/2000/svg" viewBox="0 0 2116.09 1503.51">
  <defs>
    <style>
      .cls-1 {
        fill: #f7f7f7;
        stroke-width: 0px;
      }
    </style>
  </defs>
  <g>
    <path class="cls-1" d="M687.15,518.04c-14.68,5.35-50.41,9.65-136.26-6.47-.49-.1-.97-.22-1.44-.38-3.89-1.32-21.96-7.94-33.45-19.93h0c-58.42-3.29-127.09-9.94-153.28,15.28-6.9,6.65-12.73,13.89-17.47,21.73-10.44,17.25-15.66,37.39-15.66,60.42,0,5.29.17,10.37.51,15.25,1.6,22.83,6.93,41.28,15.99,55.35,11,17.09,30.37,30.15,58.1,39.17,14.67,4.52,35.52,10,62.57,16.44,9.34,2.22,18.2,4.47,26.56,6.74,15.84,4.3,29.9,8.65,42.21,13.09,16.62,6.2,31.45,13.78,44.48,22.75,16.8,11.55,30.62,25.41,41.46,41.56,18.45,27.51,28.06,65.53,28.82,114.06.03,2.09.05,4.21.05,6.34,0,28.04-4.64,55.77-13.92,83.17-.38,1.12-.76,2.22-1.16,3.33-9.2,25.96-21.82,48.06-37.86,66.3-18.34,20.64-39.71,36.75-64.12,48.36-24.41,11.6-53.8,17.41-88.23,17.41-113.31-.01-219.05-67.19-239.51-183.37,71.27,72.77,248.08,153.16,338.74,67.32,1.63-1.54,3.19-3.11,4.7-4.72,19.52-20.77,29.68-47.44,30.48-80.03.03-1.4.05-2.81.05-4.23,0-31.91-5.55-55.44-16.67-70.59-11.12-15.15-28.02-26.91-50.71-35.3-17.19-6.44-35.81-11.77-55.87-15.96-9.04-1.89-18.33-4.01-27.86-6.35-11.6-2.86-23.57-6.06-35.9-9.61-19.44-5.8-36.72-13.36-51.84-22.67-20.19-12.43-36.55-28-49.06-46.71-14.5-21.68-24.2-47.72-29.09-78.12-2.49-15.47-3.74-32.07-3.74-49.78v-.32c.06-60.13,18.16-109.43,54.31-147.88,41.48-44.13,159.96-73.59,235.47-46.72,22.81-2.7,61.78-5.22,75.49,6.7,16.13,14.02,54.3,72.48,68.03,93.9,3.39,5.29,1.02,12.33-4.92,14.5Z"/>
    <path class="cls-1" d="M253.76,604.75c-16.24,24.43-27.55,52.84-32.85,84.67,10.29-13.55,22.95-26.28,37.1-38.08-2.52-14.58-3.94-30.12-4.25-46.59ZM582.64,544.57c-30.31-26.92-68.78-40.39-115.39-40.39-30.11,0-57.74,3.38-82.88,10.14l-.08.02c-10.54,2.83-20.72,6.26-30.5,10.25-12.7,17.81-19.11,39.29-19.11,64.09,0,4.36.12,8.59.36,12.66,17.25-8.93,34.54-16.73,50.91-23.31,26.57-10.7,53.77-16.06,81.58-16.06,30.51,0,55.01,7.43,73.53,22.31,18.51,14.87,27.77,34.02,27.77,57.46,0,20.95-4.61,37.4-13.81,49.34-9.21,11.95-25.42,21.07-48.63,27.38-.93.24-1.89.48-2.87.73,12.45,3.55,23.73,7.14,33.74,10.74,17.52,6.54,33.18,14.64,46.9,24.27,6.17-5.08,11.66-10.63,16.47-16.64,18.33-22.86,27.48-52.67,27.48-89.4,0-42.13-15.15-76.66-45.47-103.59ZM551.56,950.66c-28.39,11.5-55.06,17.24-80,17.24-35.29,0-62.78-7.78-82.44-23.32-19.66-15.55-29.49-36.28-29.49-62.19,0-22.3,4.65-38.75,13.95-49.34,9.31-10.59,23.45-18.81,42.44-24.67.88-.27,1.76-.55,2.65-.82-9-2.31-18.21-4.81-27.57-7.5-20.4-6.09-38.57-14.14-54.43-24.11-4.45,4.01-8.51,8.29-12.16,12.83-16.12,20.06-24.17,48.11-24.17,84.16,0,19.6,3.88,38.99,11.65,58.13,7.77,19.16,18.66,35.38,32.66,48.67,15.35,14.42,33.23,25.69,53.66,33.8,20.44,8.11,45.04,12.17,73.81,12.17,24.45,0,46.95-2.12,67.49-6.36.39-.36.78-.72,1.16-1.08,20.82-19.72,32.07-46.01,33.49-78.21-7.31,3.91-14.89,7.45-22.72,10.62Z"/>
    <path class="cls-1" d="M751.72,922.47c-11.36,17.71-42.93,66.07-56.27,77.67-9.95,8.64-35.99,8.1-54.97,6.32.25-.74.51-1.48.76-2.22,9.42-27.79,14.19-56.33,14.19-84.8,0-2.41-.02-4.8-.06-7.17,56.42-9.04,81.38-5.76,92.28-1.79,4.92,1.79,6.88,7.63,4.07,12Z"/>
  </g>
  <g>
    <path class="cls-1" d="M901.53,376.76h64.89v110.74h-64.89v-46.24h-38.86v65.28l38.86,29.53h.39l39.25,29.14,25.26,19.04v181.08h-168.64v-123.57h64.89v64.5h38.86v-89.76l-38.86-29.14-29.92-22.15-34.97-26.03v-162.42h103.75Z"/>
    <path class="cls-1" d="M1062.4,700.44h82.77v64.89h-147.66v-388.58h64.89v323.68Z"/>
    <path class="cls-1" d="M1297.09,376.76h27.98v63.34h-84.32v123.57l.78-.39,26.42-26.42,29.14-29.14v68.39l-1.55,1.55-54.79,54.79v70.33h84.32v62.56h-148.82v-388.58h120.85Z"/>
    <path class="cls-1" d="M1477,376.76h27.98v63.34h-84.32v123.57l.78-.39,26.42-26.42,29.14-29.14v68.39l-1.55,1.55-54.79,54.79v70.33h84.32v62.56h-148.82v-388.58h120.85Z"/>
    <path class="cls-1" d="M1722.98,700.44l25.65,64.89h-69.56l-25.26-64.89-5.83-14.38-19.82-50.13-6.22-15.93-8.55-22.15-12.82,12.82v154.65h-64.5v-388.58h64.5v165.14l3.5-3.11,39.63-40.02,4.27-4.27v-117.74h64.89v146.49l-9.33,8.94-31.47,31.86,25.64,71.89,15.15,38.08,10.1,26.42Z"/>
    <path class="cls-1" d="M894.68,796.62h59.17v100.98h-59.17v-42.16h-35.43v59.52l35.43,26.93h.35l35.78,26.57,23.03,17.36v165.11h-153.77v-112.67h59.17v58.81h35.43v-81.85l-35.43-26.57-27.28-20.2-31.89-23.74v-148.1h94.6Z"/>
    <path class="cls-1" d="M1095.92,796.62h58.82v354.3h-55.98l-2.84-10.63-14.17-48.54-17.36-58.81-23.38-80.07v198.06h-58.81v-354.3h59.52l17.71,60.59,9.21,31.18,15.94,55.98,11.34,37.91v-185.66Z"/>
    <path class="cls-1" d="M1285.12,796.62h58.81v354.3h-58.81v-173.61l-2.48,2.48-40.75,40.74v130.38h-58.81v-354.3h102.04ZM1285.12,854.38h-43.22v103.46l15.59-15.23,27.64-27.99v-60.23Z"/>
    <path class="cls-1" d="M1542.7,1091.76l23.38,59.17h-63.42l-23.03-59.17-5.31-13.11-18.07-45.71-5.67-14.53-7.79-20.2-11.69,11.69v141.01h-58.81v-354.3h58.81v150.58l3.19-2.83,36.14-36.49,3.9-3.9v-107.35h59.17v133.57l-8.5,8.15-28.7,29.05,23.38,65.55,13.82,34.72,9.21,24.09Z"/>
    <path class="cls-1" d="M1704.62,796.62h25.51v57.75h-76.88v112.67l.71-.35,24.09-24.09,26.57-26.57v62.36l-1.42,1.42-49.96,49.96v64.13h76.88v57.04h-135.7v-354.3h110.19Z"/>
    <path class="cls-1" d="M1853.07,796.62h59.17v100.98h-59.17v-42.16h-35.43v59.52l35.43,26.93h.35l35.79,26.57,23.03,17.36v165.11h-153.77v-112.67h59.17v58.81h35.43v-81.85l-35.43-26.57-27.28-20.2-31.89-23.74v-148.1h94.6Z"/>
  </g>
</svg>